<svg width="91" height="20" viewBox="0 0 91 20" fill="none" xmlns="http://www.w3.org/2000/svg">
<path fill-rule="evenodd" clip-rule="evenodd" d="M14.085 14.01C13.216 14.7 12.1 15.117 10.4 15C7.5 14.8 5.8 12.651 5.8 10C5.8 7.349 7.6 5.1 10.4 5C12.1 4.939 13.168 5.293 14.034 5.951L16.807 1.99C15.062 0.609 12.705 0 10 0C4.2 0 0 4.2 0 10C0 15.8 4.2 20 10 20C12.756 20 15.151 19.367 16.905 17.931L14.085 14.01ZM90.3002 9.9998C90.3002 7.1998 87.9002 4.7998 83.3002 4.7998C80.9072 4.7998 79.2312 5.22881 78.2692 5.5738L79.0872 9.3108C84.2002 7.7998 85.9002 9.4998 85.7002 11.5998C85.7002 11.5998 83.7002 10.5998 81.5002 10.5998C78.3002 10.5998 76.5002 12.7998 76.5002 15.2498C76.5002 18.3998 78.5002 19.9998 81.5002 19.9998C83.2622 19.9998 84.8092 19.2068 85.7002 18.0088V19.5998H90.3002V9.9998ZM83.1002 16.4998C81.9002 16.4998 81.3002 15.8998 81.3002 14.8998C81.3002 13.8998 82.1002 13.2998 83.1002 13.2998C84.2201 13.2998 84.8175 13.474 85.5132 13.6769L85.6642 13.7208C85.6642 15.0998 84.9002 16.4998 83.1002 16.4998ZM17.4093 12.3998C17.4093 7.9918 20.8013 4.7998 25.2093 4.7998C29.6173 4.7998 33.0163 7.9918 33.0093 12.3998C33.0023 16.8078 29.6173 19.9998 25.2093 19.9998C20.8013 19.9998 17.4093 16.8078 17.4093 12.3998ZM22.3003 12.3998C22.3003 14.2998 23.5003 15.5998 25.2003 15.5998C26.9003 15.5998 28.1003 14.1998 28.1003 12.3998C28.1003 10.5998 26.9003 9.1998 25.2003 9.1998C23.5003 9.1998 22.3003 10.5998 22.3003 12.3998ZM43.5 4.7998C41.821 4.7998 40.242 5.7208 39.2 6.9608V5.1998H34.6V19.5998H39.2V11.1998C39.2 10.6428 39.4213 10.1087 39.8151 9.71488C40.2089 9.32105 40.7431 9.0998 41.3 9.0998C41.857 9.0998 42.3911 9.32105 42.7849 9.71488C43.1788 10.1087 43.4 10.6428 43.4 11.1998V19.5998H48V9.39981C48 6.7998 46.3 4.7998 43.5 4.7998ZM69.6 13.4296C69.6 14.7996 70.5 15.5996 72.2 15.5996C72.8856 15.5797 73.5597 15.4184 74.18 15.1256L75.446 18.8146C74.498 19.2886 72.726 19.9996 70.646 19.9996C67.068 19.9996 65.077 18.2696 65 15.7996V1.29964H69.6V5.19964H74L73.8 9.19964H69.6V13.4296ZM76.1687 18.313L76.1597 18.425L76.1997 18.4L76.1687 18.313ZM51.2 15.1998L49.6 17.9998C51.577 19.3818 53.908 19.9998 56.592 19.9998C60.344 19.9998 62.7 18.1618 62.7 14.9998V14.9508C62.7 11.9748 60.6 10.9618 57.1 10.0618C55.706 9.68981 55.4 9.1998 55.4 8.7998C55.417 8.58166 55.5061 8.37537 55.6533 8.21349C55.8005 8.05161 55.9975 7.94335 56.213 7.9058C57.4 7.6998 59.33 8.3498 60.8 9.1998L62.449 6.4738C60.776 5.4108 58.52 4.7998 56.239 4.7998C52.639 4.7998 50.206 6.5798 50.206 9.7688V9.82181C50.206 12.8248 52.358 13.8118 55.858 14.7118C57.253 15.0838 57.5 15.5998 57.5 15.8998C57.5 16.1998 57.222 16.6158 56.67 16.6938C55.2 16.8998 52.873 16.2898 51.2 15.1998Z" fill="url(#paint0_linear)"/>
<defs>
<linearGradient id="paint0_linear" x1="53.7503" y1="-15.625" x2="19.5003" y2="45.1252" gradientUnits="userSpaceOnUse">
<stop stop-color="#0BA5FF"/>
<stop offset="1" stop-color="#0078D2"/>
</linearGradient>
</defs>
</svg>
