<svg width="109" height="24" viewBox="0 0 109 24" fill="none" xmlns="http://www.w3.org/2000/svg">
<path fill-rule="evenodd" clip-rule="evenodd" d="M16.902 16.812C15.8592 17.64 14.52 18.1404 12.48 18C9 17.76 6.96 15.1812 6.96 12C6.96 8.8188 9.12 6.12 12.48 6C14.52 5.9268 15.8016 6.3516 16.8408 7.1412L20.1684 2.388C18.0744 0.7308 15.246 0 12 0C5.04 0 0 5.04 0 12C0 18.96 5.04 24 12 24C15.3072 24 18.1812 23.2404 20.286 21.5172L16.902 16.812ZM108.36 11.9998C108.36 8.6398 105.48 5.7598 99.9602 5.7598C97.0886 5.7598 95.0774 6.2746 93.923 6.6886L94.9046 11.173C101.04 9.3598 103.08 11.3998 102.84 13.9198C102.84 13.9198 100.44 12.7198 97.8002 12.7198C93.9602 12.7198 91.8002 15.3598 91.8002 18.2998C91.8002 22.0798 94.2002 23.9998 97.8002 23.9998C99.9146 23.9998 101.771 23.0482 102.84 21.6106V23.5198H108.36V11.9998ZM99.7202 19.7998C98.2802 19.7998 97.5602 19.0798 97.5602 17.8798C97.5602 16.6798 98.5202 15.9598 99.7202 15.9598C101.064 15.9598 101.781 16.1688 102.616 16.4123L102.797 16.465C102.797 18.1198 101.88 19.7998 99.7202 19.7998ZM20.891 14.8798C20.891 9.5902 24.9614 5.7598 30.251 5.7598C35.5406 5.7598 39.6194 9.5902 39.611 14.8798C39.6026 20.1694 35.5406 23.9998 30.251 23.9998C24.9614 23.9998 20.891 20.1694 20.891 14.8798ZM26.7602 14.8798C26.7602 17.1598 28.2002 18.7198 30.2402 18.7198C32.2802 18.7198 33.7202 17.0398 33.7202 14.8798C33.7202 12.7198 32.2802 11.0398 30.2402 11.0398C28.2002 11.0398 26.7602 12.7198 26.7602 14.8798ZM52.2002 5.7598C50.1854 5.7598 48.2906 6.865 47.0402 8.353V6.2398H41.5202V23.5198H47.0402V13.4398C47.0402 12.7715 47.3057 12.1305 47.7783 11.6579C48.2509 11.1853 48.8918 10.9198 49.5602 10.9198C50.2285 10.9198 50.8695 11.1853 51.3421 11.6579C51.8147 12.1305 52.0802 12.7715 52.0802 13.4398V23.5198H57.6002V11.2798C57.6002 8.1598 55.5602 5.7598 52.2002 5.7598ZM83.5201 16.1158C83.5201 17.7598 84.6001 18.7198 86.6401 18.7198C87.4629 18.6959 88.2718 18.5023 89.0161 18.151L90.5353 22.5778C89.3978 23.1466 87.2713 23.9998 84.7753 23.9998C80.4818 23.9998 78.0925 21.9238 78.0001 18.9598V1.55979H83.5201V6.23979H88.8001L88.5601 11.0398H83.5201V16.1158ZM91.4025 21.9757L91.3917 22.1101L91.4397 22.0801L91.4025 21.9757ZM61.4402 18.2398L59.5202 21.5998C61.8926 23.2582 64.6898 23.9998 67.9106 23.9998C72.413 23.9998 75.2402 21.7942 75.2402 17.9998V17.941C75.2402 14.3698 72.7202 13.1542 68.5202 12.0742C66.8474 11.6278 66.4802 11.0398 66.4802 10.5598C66.5006 10.298 66.6075 10.0505 66.7842 9.85622C66.9608 9.66196 67.1971 9.53206 67.4558 9.487C68.8802 9.2398 71.1962 10.0198 72.9602 11.0398L74.939 7.7686C72.9314 6.493 70.2242 5.7598 67.487 5.7598C63.167 5.7598 60.2474 7.8958 60.2474 11.7226V11.7862C60.2474 15.3898 62.8298 16.5742 67.0298 17.6542C68.7038 18.1006 69.0002 18.7198 69.0002 19.0798C69.0002 19.4398 68.6666 19.939 68.0042 20.0326C66.2402 20.2798 63.4478 19.5478 61.4402 18.2398Z" fill="url(#paint0_linear)"/>
<defs>
<linearGradient id="paint0_linear" x1="64.5003" y1="-18.75" x2="23.4004" y2="54.1502" gradientUnits="userSpaceOnUse">
<stop stop-color="#0BA5FF"/>
<stop offset="1" stop-color="#0078D2"/>
</linearGradient>
</defs>
</svg>
