<svg width="90" height="24" viewBox="0 0 90 24" fill="none" xmlns="http://www.w3.org/2000/svg">
<g clip-path="url(#clip0)">
<path fill-rule="evenodd" clip-rule="evenodd" d="M14.085 15.01C13.216 15.7 12.1 16.117 10.4 16C7.5 15.8 5.8 13.651 5.8 11C5.8 8.349 7.6 6.1 10.4 6C12.1 5.939 13.168 6.293 14.034 6.951L16.807 2.99C15.062 1.609 12.705 1 10 1C4.2 1 0 5.2 0 11C0 16.8 4.2 21 10 21C12.756 21 15.151 20.367 16.905 18.931L14.085 15.01ZM90.3002 10.9998C90.3002 8.1998 87.9002 5.7998 83.3002 5.7998C80.9072 5.7998 79.2312 6.22881 78.2692 6.5738L79.0872 10.3108C84.2002 8.7998 85.9002 10.4998 85.7002 12.5998C85.7002 12.5998 83.7002 11.5998 81.5002 11.5998C78.3002 11.5998 76.5002 13.7998 76.5002 16.2498C76.5002 19.3998 78.5002 20.9998 81.5002 20.9998C83.2622 20.9998 84.8092 20.2068 85.7002 19.0088V20.5998H90.3002V10.9998ZM83.1002 17.4998C81.9002 17.4998 81.3002 16.8998 81.3002 15.8998C81.3002 14.8998 82.1002 14.2998 83.1002 14.2998C84.2201 14.2998 84.8175 14.474 85.5132 14.6769L85.6642 14.7208C85.6642 16.0998 84.9002 17.4998 83.1002 17.4998ZM17.4093 13.3998C17.4093 8.9918 20.8013 5.7998 25.2093 5.7998C29.6173 5.7998 33.0163 8.9918 33.0093 13.3998C33.0023 17.8078 29.6173 20.9998 25.2093 20.9998C20.8013 20.9998 17.4093 17.8078 17.4093 13.3998ZM22.3003 13.3998C22.3003 15.2998 23.5003 16.5998 25.2003 16.5998C26.9003 16.5998 28.1003 15.1998 28.1003 13.3998C28.1003 11.5998 26.9003 10.1998 25.2003 10.1998C23.5003 10.1998 22.3003 11.5998 22.3003 13.3998ZM43.5 5.7998C41.821 5.7998 40.242 6.7208 39.2 7.9608V6.1998H34.6V20.5998H39.2V12.1998C39.2 11.6428 39.4213 11.1087 39.8151 10.7149C40.2089 10.3211 40.7431 10.0998 41.3 10.0998C41.857 10.0998 42.3911 10.3211 42.7849 10.7149C43.1788 11.1087 43.4 11.6428 43.4 12.1998V20.5998H48V10.3998C48 7.7998 46.3 5.7998 43.5 5.7998ZM69.6 14.4296C69.6 15.7996 70.5 16.5996 72.2 16.5996C72.8856 16.5797 73.5597 16.4184 74.18 16.1256L75.446 19.8146C74.498 20.2886 72.726 20.9996 70.646 20.9996C67.068 20.9996 65.077 19.2696 65 16.7996V2.29964H69.6V6.19964H74L73.8 10.1996H69.6V14.4296ZM76.1687 19.313L76.1597 19.425L76.1997 19.4L76.1687 19.313ZM51.2 16.1998L49.6 18.9998C51.577 20.3818 53.908 20.9998 56.592 20.9998C60.344 20.9998 62.7 19.1618 62.7 15.9998V15.9508C62.7 12.9748 60.6 11.9618 57.1 11.0618C55.706 10.6898 55.4 10.1998 55.4 9.7998C55.417 9.58166 55.5061 9.37537 55.6533 9.21349C55.8005 9.05161 55.9975 8.94335 56.213 8.9058C57.4 8.6998 59.33 9.3498 60.8 10.1998L62.449 7.4738C60.776 6.4108 58.52 5.7998 56.239 5.7998C52.639 5.7998 50.206 7.5798 50.206 10.7688V10.8218C50.206 13.8248 52.358 14.8118 55.858 15.7118C57.253 16.0838 57.5 16.5998 57.5 16.8998C57.5 17.1998 57.222 17.6158 56.67 17.6938C55.2 17.8998 52.873 17.2898 51.2 16.1998Z" fill="url(#paint0_linear)"/>
</g>
<defs>
<linearGradient id="paint0_linear" x1="53.7503" y1="-14.625" x2="19.5003" y2="46.1252" gradientUnits="userSpaceOnUse">
<stop stop-color="#0BA5FF"/>
<stop offset="1" stop-color="#0078D2"/>
</linearGradient>
<clipPath id="clip0">
<rect width="90" height="24" fill="white"/>
</clipPath>
</defs>
</svg>
